Coordinates
version=1
nRows=27
nColumns=19
inDegrees=yes

Units are S.I. units (second, meters, Newtons, ...)
If the header above contains a line with 'inDegrees', this indicates whether rotational values are in degrees (yes) or radians (no).

endheader
time	pelvis_to_ground_rx	pelvis_to_ground_ry	pelvis_to_ground_rz	pelvis_to_ground_tx	pelvis_to_ground_ty	pelvis_to_ground_tz	left_hip_abduction	left_hip_rotation	left_hip_flexion	left_knee_flexion	left_ankle_flexion	left_subtalar_angle	right_hip_abduction	right_hip_rotation	right_hip_flexion	right_knee_flexion	right_ankle_flexion	right_subtalar_angle
      1.01000000	     99.18094493	      1.60439510	     -3.12284308	     -1.05905976	     -0.74916425	      0.71223438	    -18.02700918	     -6.10534206	     24.41942263	    -35.46731668	      3.73344352	    -10.71678328	     -3.88624255	    -11.82881379	      9.64638466	    -59.74105903	     -8.37055128	     -7.09057027
      1.02000000	     99.17837579	      1.95547149	     -3.23041313	     -1.04898393	     -0.74868731	      0.71579048	    -17.88803013	     -6.40205864	     22.84108079	    -33.99168090	      3.70831541	    -10.45956365	     -3.42201011	    -12.05092403	     11.40833046	    -60.50132379	     -8.23392334	     -7.08260997
      1.03000000	     99.02639712	      2.29966903	     -3.30055844	     -1.03913606	     -0.74827064	      0.71936748	    -17.58832333	     -6.70597930	     21.28624251	    -32.54399188	      3.32771249	     -9.60912595	     -2.81377302	    -12.12839007	     13.15545373	    -61.02712140	     -7.43148448	     -6.65384577
      1.04000000	     98.79396865	      2.66312724	     -3.30782089	     -1.02947573	     -0.74787248	      0.72285019	    -17.19207728	     -7.19639863	     19.70085627	    -31.13436423	      3.27983210	     -9.38300187	     -2.17961322	    -12.14197317	     14.83987646	    -61.33488789	     -7.23410252	     -6.62703377
      1.05000000	     98.48862216	      3.04046037	     -3.23732701	     -1.01997731	     -0.74750524	      0.72615437	    -16.73569150	     -7.76661950	     18.11221731	    -29.83432684	      3.07899708	     -9.07786818	     -1.53766028	    -12.09568458	     16.43409040	    -61.44804676	     -6.87973601	     -6.61977275
      1.06000000	     98.13388073	      3.41968111	     -3.11077912	     -1.01062611	     -0.74717436	      0.72919781	    -16.26338864	     -8.25746148	     16.59754824	    -28.72224966	      2.49186275	     -8.58712396	     -0.91460571	    -11.99718391	     17.96089718	    -61.39986151	     -5.96848285	     -6.50175137
      1.07000000	     97.78099041	      3.82087389	     -2.89616984	     -1.00140051	     -0.74684251	      0.73192710	    -15.82383461	     -8.86069837	     15.06643353	    -27.75603700	      2.41351399	     -8.38868687	     -0.38970023	    -11.91386291	     19.37610772	    -61.20435919	     -5.74161332	     -6.49713185
      1.08000000	     97.43986600	      4.23573659	     -2.68507553	     -0.99230542	     -0.74653770	      0.73430535	    -15.42777329	     -9.43825703	     13.65699744	    -26.98856392	      2.24877874	     -8.16145800	      0.05556590	    -11.83840130	     20.78215044	    -60.88441874	     -5.40764689	     -6.57075736
      1.09000000	     97.13908733	      4.65811756	     -2.46680245	     -0.98332906	     -0.74625195	      0.73629337	    -15.10645530	     -9.92653006	     12.35902079	    -26.41791557	      2.05299793	     -7.93275013	      0.38835780	    -11.78826183	     22.16773216	    -60.45510462	     -5.02180513	     -6.70022723
      1.10000000	     96.87975975	      5.08663584	     -2.25072560	     -0.97445703	     -0.74598097	      0.73788169	    -14.85488580	    -10.31936950	     11.17206419	    -26.03130737	      1.88634917	     -7.71969660	      0.61444990	    -11.74822748	     23.53204111	    -59.90779286	     -4.65451796	     -6.86166195
      1.11000000	     96.67918783	      5.50206509	     -2.04710199	     -0.96567353	     -0.74573939	      0.73906123	    -14.68033324	    -10.51217773	     10.11109314	    -25.81672210	      1.70190563	     -7.44350910	      0.72473122	    -11.71347202	     24.88396282	    -59.24049938	     -4.15267349	     -7.12982424
      1.12000000	     96.54581261	      5.95021305	     -1.87340286	     -0.95696820	     -0.74551964	      0.73984368	    -14.58439191	    -10.69916666	      9.14157683	    -25.73137032	      1.71401756	     -7.30392797	      0.72219236	    -11.77575980	     26.23522041	    -58.44158261	     -4.01633177	     -7.23121320
      1.13000000	     96.45026667	      6.38548499	     -1.73384053	     -0.94831614	     -0.74534748	      0.74027776	    -14.52459391	    -10.78720512	      8.26276653	    -25.73502137	      1.75044746	     -7.16610588	      0.65081119	    -11.83335255	     27.56620937	    -57.46692583	     -3.87257866	     -7.34834859
      1.14000000	     96.44110454	      6.82477672	     -1.64676367	     -0.93968976	     -0.74520285	      0.74035574	    -14.54721075	    -10.79861436	      7.47200514	    -25.80850751	      1.83170260	     -7.01724678	      0.47124652	    -11.93748776	     28.89131092	    -56.32879021	     -3.73485674	     -7.46719996
      1.15000000	     96.46428737	      7.24520604	     -1.58894608	     -0.93105682	     -0.74511346	      0.74014617	    -14.59206947	    -10.74190304	      6.73033287	    -25.91905871	      1.97894447	     -6.84949903	      0.24769651	    -12.03716147	     30.15713917	    -54.97464991	     -3.62887764	     -7.56027360
      1.16000000	     96.51094751	      7.65107273	     -1.54055464	     -0.92237466	     -0.74507670	      0.73968257	    -14.65108915	    -10.64187441	      6.00008137	    -26.04595646	      2.16234121	     -6.69773232	     -0.00722618	    -12.13478874	     31.32040676	    -53.38931804	     -3.58923778	     -7.58844148
      1.17000000	     96.60892720	      8.03422021	     -1.50666665	     -0.91361550	     -0.74508342	      0.73897014	    -14.74693724	    -10.40662613	      5.31271829	    -26.23393752	      3.12696847	     -5.82702898	     -0.30949675	    -12.24950391	     32.38332280	    -51.59546932	     -3.73509037	     -7.49571928
      1.18000000	     96.70543592	      8.41963618	     -1.51092238	     -0.90472780	     -0.74517665	      0.73813700	    -14.83526984	    -10.40449952	      4.57058686	    -26.31732567	      3.19401084	     -5.70194246	     -0.59417991	    -12.35011656	     33.32026019	    -49.54197859	     -3.78464068	     -7.41325097
      1.19000000	     96.80346915	      8.78864285	     -1.50337046	     -0.89566860	     -0.74533438	      0.73717385	    -14.92333374	    -10.45221278	      3.77906897	    -26.37830519	      3.44707324	     -5.59247413	     -0.87086008	    -12.42645974	     34.07398302	    -47.26644393	     -4.03347808	     -7.17058905
      1.20000000	     96.85574369	      9.12927025	     -1.47083823	     -0.88638456	     -0.74559591	      0.73610301	    -14.93036953	    -10.33764252	      2.99895843	    -26.48658186	      3.53304106	     -5.57379414	     -1.09187727	    -12.43207898	     34.61477033	    -44.78604959	     -4.10722934	     -7.06327446
      1.21000000	     96.93940218	      9.49061010	     -1.39673605	     -0.87687364	     -0.74588641	      0.73496079	    -15.01410758	    -10.53660949	      2.06866996	    -26.53713603	      4.14014429	     -5.43418680	     -1.34089156	    -12.45466305	     34.92727493	    -42.18267474	     -5.02768692	     -6.34092933
      1.22000000	     96.99233612	      9.86772489	     -1.26391803	     -0.86705363	     -0.74627541	      0.73375411	    -15.06099079	    -10.73433965	      1.06708793	    -26.60615727	      4.42039876	     -5.30076157	     -1.55662578	    -12.45353238	     34.98570996	    -39.50132369	     -5.54842041	     -5.93208341
      1.23000000	     97.01445811	     10.22131482	     -1.13636036	     -0.85693346	     -0.74673626	      0.73252394	    -15.06367260	    -10.90855855	      0.08904579	    -26.73528435	      4.73515621	     -5.18365172	     -1.74807479	    -12.31973490	     34.85638034	    -36.79196230	     -6.31597550	     -5.41152867
      1.24000000	     97.03206808	     10.59824335	     -0.89936746	     -0.84646206	     -0.74722820	      0.73124394	    -15.09198383	    -11.14616338	     -1.02827682	    -26.89302167	      4.88438684	     -5.10888020	     -1.96154687	    -12.15678679	     34.44432806	    -34.17909555	     -6.82021090	     -5.06976578
      1.25000000	     97.00409817	     10.99802476	     -0.65745111	     -0.83567520	     -0.74778429	      0.72996746	    -15.05925251	    -11.36060642	     -2.09667003	    -27.17161216	      5.05161544	     -5.04294804	     -2.12714590	    -11.95479008	     33.87241876	    -31.69616681	     -7.58135780	     -4.61392633
      1.26000000	     96.91323351	     11.45151438	     -0.44964463	     -0.82455863	     -0.74839998	      0.72872057	    -14.93158826	    -11.54991885	     -3.03880951	    -27.63213877	      5.20650544	     -4.93686485	     -2.19457883	    -11.81639949	     33.21005020	    -29.41030732	     -8.55525124	     -4.12291858
      1.27000000	     96.80053567	     11.88725888	     -0.27193996	     -0.81316135	     -0.74902036	      0.72751037	    -14.76180668	    -11.67396846	     -3.86688880	    -28.24256044	      5.25597238	     -4.79309431	     -2.27386935	    -11.50752801	     32.43866792	    -27.36272427	     -9.27788048	     -3.80053333
